<?xml version="1.0" encoding="UTF-8"?>
<svg xmlns="http://www.w3.org/2000/svg" version="1.1" width="500" height="500" viewBox="0 0 500 500"><rect x="0" y="0" width="500" height="500" fill="#ffffff"/><g transform="scale(16.129)"><g transform="translate(1,1)"><g><g transform="translate(3.5,3.5)"><path fill-rule="evenodd" d="M-3.5 -3.5L3.5 -3.5L3.5 3.5L-3.5 3.5ZM-2.5 -2.5L-2.5 2.5L2.5 2.5L2.5 -2.5Z" fill="#000000"/><path fill-rule="evenodd" d="M-1.5 -1.5L1.5 -1.5L1.5 1.5L-1.5 1.5Z" fill="#000000"/></g></g><g><g transform="translate(25.5,3.5)"><g transform="rotate(90)"><path fill-rule="evenodd" d="M-3.5 -3.5L3.5 -3.5L3.5 3.5L-3.5 3.5ZM-2.5 -2.5L-2.5 2.5L2.5 2.5L2.5 -2.5Z" fill="#000000"/><path fill-rule="evenodd" d="M-1.5 -1.5L1.5 -1.5L1.5 1.5L-1.5 1.5Z" fill="#000000"/></g></g></g><g><g transform="translate(3.5,25.5)"><g transform="rotate(-90)"><path fill-rule="evenodd" d="M-3.5 -3.5L3.5 -3.5L3.5 3.5L-3.5 3.5ZM-2.5 -2.5L-2.5 2.5L2.5 2.5L2.5 -2.5Z" fill="#000000"/><path fill-rule="evenodd" d="M-1.5 -1.5L1.5 -1.5L1.5 1.5L-1.5 1.5Z" fill="#000000"/></g></g></g><path fill-rule="evenodd" d="M8 0L8 2L9 2L9 3L8 3L8 4L9 4L9 5L10 5L10 3L12 3L12 2L11 2L11 1L12 1L12 0L11 0L11 1L10 1L10 2L9 2L9 0ZM13 0L13 2L14 2L14 0ZM15 0L15 1L16 1L16 0ZM19 0L19 2L18 2L18 3L17 3L17 2L16 2L16 3L14 3L14 5L13 5L13 4L12 4L12 5L13 5L13 6L12 6L12 8L11 8L11 6L10 6L10 8L9 8L9 6L8 6L8 8L5 8L5 10L6 10L6 11L5 11L5 13L4 13L4 12L3 12L3 10L2 10L2 12L1 12L1 13L0 13L0 16L2 16L2 17L3 17L3 18L2 18L2 20L1 20L1 21L2 21L2 20L3 20L3 19L5 19L5 17L8 17L8 16L10 16L10 18L6 18L6 19L8 19L8 20L5 20L5 21L8 21L8 24L10 24L10 25L11 25L11 26L12 26L12 25L13 25L13 24L15 24L15 26L16 26L16 28L17 28L17 29L21 29L21 28L19 28L19 27L20 27L20 26L18 26L18 25L21 25L21 27L25 27L25 29L26 29L26 28L27 28L27 29L28 29L28 28L29 28L29 26L28 26L28 25L29 25L29 24L27 24L27 23L28 23L28 21L29 21L29 19L28 19L28 18L25 18L25 19L26 19L26 21L27 21L27 23L26 23L26 22L25 22L25 20L23 20L23 19L24 19L24 18L23 18L23 19L22 19L22 20L20 20L20 19L21 19L21 18L20 18L20 17L23 17L23 16L24 16L24 17L25 17L25 14L26 14L26 15L27 15L27 16L26 16L26 17L28 17L28 16L29 16L29 15L27 15L27 13L25 13L25 14L24 14L24 11L26 11L26 8L25 8L25 9L24 9L24 10L23 10L23 12L22 12L22 14L21 14L21 11L22 11L22 10L21 10L21 8L20 8L20 7L21 7L21 6L20 6L20 5L19 5L19 6L18 6L18 3L19 3L19 2L21 2L21 0ZM16 3L16 5L14 5L14 6L13 6L13 8L12 8L12 9L13 9L13 8L14 8L14 9L15 9L15 10L14 10L14 11L13 11L13 10L12 10L12 11L10 11L10 12L9 12L9 10L8 10L8 9L9 9L9 8L8 8L8 9L6 9L6 10L7 10L7 11L6 11L6 12L7 12L7 13L6 13L6 14L4 14L4 13L3 13L3 12L2 12L2 13L1 13L1 15L2 15L2 13L3 13L3 17L5 17L5 16L8 16L8 15L9 15L9 14L7 14L7 13L11 13L11 15L10 15L10 16L12 16L12 13L13 13L13 14L14 14L14 15L13 15L13 17L11 17L11 19L10 19L10 20L11 20L11 19L12 19L12 20L13 20L13 19L12 19L12 18L14 18L14 15L15 15L15 18L16 18L16 17L17 17L17 18L19 18L19 19L20 19L20 18L19 18L19 17L20 17L20 16L19 16L19 14L20 14L20 15L21 15L21 14L20 14L20 10L19 10L19 11L18 11L18 9L17 9L17 7L18 7L18 6L17 6L17 3ZM20 3L20 4L21 4L21 3ZM14 6L14 7L15 7L15 8L16 8L16 7L17 7L17 6L16 6L16 7L15 7L15 6ZM19 6L19 7L20 7L20 6ZM0 8L0 9L1 9L1 8ZM2 8L2 9L4 9L4 8ZM22 8L22 9L23 9L23 8ZM27 8L27 12L28 12L28 9L29 9L29 8ZM10 9L10 10L11 10L11 9ZM16 10L16 11L15 11L15 12L14 12L14 14L15 14L15 13L17 13L17 17L18 17L18 14L19 14L19 13L17 13L17 10ZM12 11L12 12L11 12L11 13L12 13L12 12L13 12L13 11ZM6 14L6 15L7 15L7 14ZM23 14L23 15L24 15L24 14ZM0 18L0 19L1 19L1 18ZM16 19L16 20L15 20L15 21L13 21L13 22L11 22L11 23L10 23L10 24L11 24L11 23L14 23L14 22L15 22L15 23L16 23L16 22L17 22L17 24L16 24L16 25L18 25L18 23L19 23L19 24L20 24L20 23L19 23L19 22L20 22L20 21L19 21L19 20L18 20L18 19ZM27 19L27 21L28 21L28 19ZM16 20L16 21L15 21L15 22L16 22L16 21L17 21L17 20ZM9 21L9 22L10 22L10 21ZM18 21L18 22L19 22L19 21ZM21 21L21 24L24 24L24 21ZM22 22L22 23L23 23L23 22ZM25 24L25 26L26 26L26 24ZM8 25L8 27L10 27L10 26L9 26L9 25ZM22 25L22 26L24 26L24 25ZM27 26L27 28L28 28L28 26ZM12 27L12 28L8 28L8 29L12 29L12 28L13 28L13 29L14 29L14 28L15 28L15 27ZM17 27L17 28L18 28L18 27ZM22 28L22 29L24 29L24 28Z" fill="#000000"/></g></g></svg>
