<svg width="17" height="17" fill="none" xmlns="http://www.w3.org/2000/svg"><g clip-path="url(#clip0)" fill="#D3D3D3"><path d="M12.013.146H4.577A4.584 4.584 0 0 0 0 4.724v7.436a4.584 4.584 0 0 0 4.577 4.577h7.436a4.584 4.584 0 0 0 4.577-4.577V4.724A4.584 4.584 0 0 0 12.013.146zM15.12 12.16a3.109 3.109 0 0 1-3.107 3.106H4.577a3.109 3.109 0 0 1-3.106-3.106V4.724a3.109 3.109 0 0 1 3.106-3.107h7.436a3.109 3.109 0 0 1 3.107 3.107v7.436z"/><path d="M8.296 4.168A4.278 4.278 0 0 0 4.02 8.442a4.278 4.278 0 0 0 4.275 4.274 4.278 4.278 0 0 0 4.274-4.274 4.278 4.278 0 0 0-4.274-4.274zm0 7.077a2.806 2.806 0 0 1-2.804-2.803 2.809 2.809 0 0 1 2.804-2.803 2.809 2.809 0 0 1 2.803 2.803 2.809 2.809 0 0 1-2.803 2.803zm4.454-8.327a1.082 1.082 0 0 0-1.08 1.08 1.082 1.082 0 0 0 1.08 1.08 1.082 1.082 0 0 0 1.08-1.08c0-.285-.115-.565-.317-.763a1.074 1.074 0 0 0-.763-.317z"/></g><defs><clipPath id="clip0"><path fill="#fff" transform="translate(0 .146)" d="M0 0H16.59V16.59H0z"/></clipPath></defs></svg>